<?xml version="1.0" encoding="utf-8"?>
<!-- Generator: Adobe Illustrator 19.1.0, SVG Export Plug-In . SVG Version: 6.00 Build 0)  -->
<svg version="1.1" id="Layer_1" xmlns="http://www.w3.org/2000/svg" xmlns:xlink="http://www.w3.org/1999/xlink" x="0px" y="0px"
	 viewBox="-245 337 120 120" style="enable-background:new -245 337 120 120;" xml:space="preserve">
<style type="text/css">
	.st0{fill:#F26623;}
	.st1{enable-background:new    ;}
	.st2{fill:#FBBE98;}
	.st3{fill:#FFFFFF;}
	.st4{fill:none;stroke:#BE4F38;stroke-width:3;stroke-linecap:round;stroke-linejoin:round;stroke-miterlimit:10;}
	.st5{display:none;}
	.st6{display:inline;opacity:0.25;}
	.st7{fill:none;stroke:#000000;stroke-width:0.25;stroke-miterlimit:10;}
	.st8{display:inline;fill:none;stroke:#000000;stroke-width:0.25;stroke-miterlimit:10;}
	.st9{display:inline;}
	.st10{opacity:0.25;}
</style>
<g id="Layer_2">
	<circle class="st0" cx="-185" cy="397" r="60"/>
	<g>
		<g class="st1">
			<path class="st2" d="M-217.7,433c-3.6-0.1-6.2-1.1-8-3s-2.7-4.9-2.7-9.2v-12.5c0-6.6-2.2-10.3-6.5-10.9v-2.7
				c4.4-0.6,6.5-4,6.5-10.2v-13.2c0-4.3,0.9-7.3,2.7-9.2c1.8-1.9,4.5-2.9,8-3v3.5c-2.5,0.1-4.2,0.9-5.2,2.4c-1,1.5-1.5,4-1.5,7.5
				v12.3c0,6.2-2,9.9-6.1,11.2v0.2c4.1,1.3,6.1,5.2,6.1,11.8v11.6c0,3.6,0.5,6.1,1.5,7.5c1,1.5,2.7,2.3,5.2,2.4V433z"/>
		</g>
	</g>
	<g>
		<g class="st1">
			<path class="st2" d="M-134.1,397.4c-4.3,0.6-6.5,4.3-6.5,10.9v12.5c0,4.3-0.9,7.3-2.7,9.2c-1.8,1.9-4.5,2.9-8,3v-3.5
				c2.3-0.1,4-0.9,5.1-2.2s1.6-3.9,1.6-7.7V408c0-6.6,2-10.5,6.1-11.8V396c-4.1-1.3-6.1-5-6.1-11.2v-12.3c0-3.8-0.5-6.3-1.6-7.7
				s-2.8-2.1-5.1-2.2v-3.5c3.6,0.1,6.2,1.1,8,3c1.8,1.9,2.7,4.9,2.7,9.2v13.2c0,6.2,2.2,9.6,6.5,10.2V397.4z"/>
		</g>
	</g>
	<g>
		<g class="st1">
			<path class="st3" d="M-188.8,398.4h-21.9v-36.5h21v6.7h-12.8v8.1h11.9v6.7h-11.9v8.3h13.7V398.4z"/>
			<path class="st3" d="M-184.6,397v-8.1c1.5,1.2,3.1,2.2,4.8,2.8c1.7,0.6,3.5,0.9,5.2,0.9c1,0,1.9-0.1,2.7-0.3s1.4-0.4,1.9-0.8
				c0.5-0.3,0.9-0.7,1.2-1.2c0.3-0.4,0.4-0.9,0.4-1.5c0-0.7-0.2-1.3-0.6-1.9c-0.4-0.6-1-1.1-1.7-1.6c-0.7-0.5-1.5-0.9-2.5-1.4
				c-1-0.4-2-0.9-3.1-1.3c-2.8-1.2-5-2.6-6.4-4.4c-1.4-1.7-2.1-3.8-2.1-6.2c0-1.9,0.4-3.5,1.1-4.9c0.8-1.4,1.8-2.5,3.1-3.4
				s2.8-1.5,4.6-1.9c1.7-0.4,3.6-0.6,5.5-0.6c1.9,0,3.6,0.1,5,0.3c1.5,0.2,2.8,0.6,4.1,1.1v7.6c-0.6-0.4-1.3-0.8-2-1.1
				c-0.7-0.3-1.5-0.6-2.2-0.8c-0.8-0.2-1.5-0.4-2.3-0.5s-1.5-0.2-2.1-0.2c-0.9,0-1.8,0.1-2.5,0.3c-0.8,0.2-1.4,0.4-1.9,0.8
				c-0.5,0.3-0.9,0.7-1.2,1.2c-0.3,0.4-0.4,1-0.4,1.5c0,0.6,0.2,1.2,0.5,1.6s0.8,0.9,1.4,1.4c0.6,0.4,1.3,0.9,2.2,1.3
				c0.8,0.4,1.8,0.8,2.9,1.3c1.5,0.6,2.8,1.3,3.9,1.9c1.2,0.7,2.2,1.5,3,2.3s1.5,1.9,1.9,3c0.4,1.1,0.7,2.4,0.7,3.9
				c0,2-0.4,3.7-1.2,5.1c-0.8,1.4-1.8,2.5-3.1,3.4c-1.3,0.9-2.9,1.5-4.6,1.8c-1.8,0.4-3.6,0.6-5.6,0.6c-2,0-3.9-0.2-5.7-0.5
				C-181.8,398.2-183.3,397.7-184.6,397z"/>
		</g>
		<g class="st1">
			<path class="st3" d="M-195.8,430.2h-11.7V409h3.5v18.2h8.2V430.2z"/>
			<path class="st3" d="M-191.4,411.9c-0.6,0-1-0.2-1.4-0.5c-0.4-0.4-0.6-0.8-0.6-1.4s0.2-1,0.6-1.4c0.4-0.4,0.9-0.6,1.4-0.6
				c0.6,0,1.1,0.2,1.5,0.6s0.6,0.8,0.6,1.4c0,0.5-0.2,1-0.6,1.4C-190.3,411.7-190.8,411.9-191.4,411.9z M-189.7,430.2h-3.4v-15.1
				h3.4V430.2z"/>
			<path class="st3" d="M-171.8,430.2h-3.4v-8.5c0-2.8-1-4.2-3-4.2c-1,0-1.9,0.4-2.6,1.2s-1,1.8-1,3v8.6h-3.4v-15.1h3.4v2.5h0.1
				c1.1-1.9,2.8-2.9,4.9-2.9c1.6,0,2.9,0.5,3.8,1.6c0.9,1.1,1.3,2.6,1.3,4.6V430.2z"/>
			<path class="st3" d="M-159.6,430c-0.7,0.3-1.5,0.5-2.6,0.5c-2.9,0-4.4-1.4-4.4-4.2v-8.5h-2.5v-2.7h2.5v-3.5l3.4-1v4.5h3.6v2.7
				h-3.6v7.6c0,0.9,0.2,1.5,0.5,1.9c0.3,0.4,0.9,0.6,1.6,0.6c0.6,0,1.1-0.2,1.5-0.5V430z"/>
		</g>
	</g>
	<g>
		<g>
			<polyline class="st4" points="-165.4,438 -162.5,435.1 -159.5,438 			"/>
		</g>
		<g>
			<polyline class="st4" points="-171.4,438 -168.5,435.1 -165.5,438 			"/>
		</g>
		<g>
			<polyline class="st4" points="-177.4,438 -174.5,435.1 -171.5,438 			"/>
		</g>
		<g>
			<polyline class="st4" points="-183.4,438 -180.5,435.1 -177.5,438 			"/>
		</g>
		<g>
			<polyline class="st4" points="-189.4,438 -186.5,435.1 -183.5,438 			"/>
		</g>
		<g>
			<polyline class="st4" points="-195.4,438 -192.5,435.1 -189.5,438 			"/>
		</g>
		<g>
			<polyline class="st4" points="-201.4,438 -198.5,435.1 -195.5,438 			"/>
		</g>
		<g>
			<polyline class="st4" points="-207.4,438 -204.5,435.1 -201.5,438 			"/>
		</g>
	</g>
</g>
<g id="Guides" class="st5">
	<g class="st6">
		<rect x="-384" y="337" class="st7" width="120" height="120"/>
		<line class="st7" x1="-384" y1="454.1" x2="-264" y2="454.1"/>
		<line class="st7" x1="-384" y1="451.1" x2="-264" y2="451.1"/>
		<line class="st7" x1="-384" y1="448.2" x2="-264" y2="448.2"/>
		<line class="st7" x1="-384" y1="445.3" x2="-264" y2="445.3"/>
		<line class="st7" x1="-384" y1="442.4" x2="-264" y2="442.4"/>
		<line class="st7" x1="-384" y1="439.4" x2="-264" y2="439.4"/>
		<line class="st7" x1="-384" y1="436.5" x2="-264" y2="436.5"/>
		<line class="st7" x1="-384" y1="433.6" x2="-264" y2="433.6"/>
		<line class="st7" x1="-384" y1="430.7" x2="-264" y2="430.7"/>
		<line class="st7" x1="-384" y1="427.7" x2="-264" y2="427.7"/>
		<line class="st7" x1="-384" y1="424.8" x2="-264" y2="424.8"/>
		<line class="st7" x1="-384" y1="421.9" x2="-264" y2="421.9"/>
		<line class="st7" x1="-384" y1="419" x2="-264" y2="419"/>
		<line class="st7" x1="-384" y1="416" x2="-264" y2="416"/>
		<line class="st7" x1="-384" y1="413.1" x2="-264" y2="413.1"/>
		<line class="st7" x1="-384" y1="410.2" x2="-264" y2="410.2"/>
		<line class="st7" x1="-384" y1="407.2" x2="-264" y2="407.2"/>
		<line class="st7" x1="-384" y1="404.3" x2="-264" y2="404.3"/>
		<line class="st7" x1="-384" y1="401.4" x2="-264" y2="401.4"/>
		<line class="st7" x1="-384" y1="398.5" x2="-264" y2="398.5"/>
		<line class="st7" x1="-384" y1="395.5" x2="-264" y2="395.5"/>
		<line class="st7" x1="-384" y1="392.6" x2="-264" y2="392.6"/>
		<line class="st7" x1="-384" y1="389.7" x2="-264" y2="389.7"/>
		<line class="st7" x1="-384" y1="386.8" x2="-264" y2="386.8"/>
		<line class="st7" x1="-384" y1="383.8" x2="-264" y2="383.8"/>
		<line class="st7" x1="-384" y1="380.9" x2="-264" y2="380.9"/>
		<line class="st7" x1="-384" y1="378" x2="-264" y2="378"/>
		<line class="st7" x1="-384" y1="375" x2="-264" y2="375"/>
		<line class="st7" x1="-384" y1="372.1" x2="-264" y2="372.1"/>
		<line class="st7" x1="-384" y1="369.2" x2="-264" y2="369.2"/>
		<line class="st7" x1="-384" y1="366.3" x2="-264" y2="366.3"/>
		<line class="st7" x1="-384" y1="363.3" x2="-264" y2="363.3"/>
		<line class="st7" x1="-384" y1="360.4" x2="-264" y2="360.4"/>
		<line class="st7" x1="-384" y1="357.5" x2="-264" y2="357.5"/>
		<line class="st7" x1="-384" y1="354.6" x2="-264" y2="354.6"/>
		<line class="st7" x1="-384" y1="351.6" x2="-264" y2="351.6"/>
		<line class="st7" x1="-384" y1="348.7" x2="-264" y2="348.7"/>
		<line class="st7" x1="-384" y1="345.8" x2="-264" y2="345.8"/>
		<line class="st7" x1="-384" y1="342.9" x2="-264" y2="342.9"/>
		<line class="st7" x1="-384" y1="339.9" x2="-264" y2="339.9"/>
		<line class="st7" x1="-266.9" y1="337" x2="-266.9" y2="457"/>
		<line class="st7" x1="-269.9" y1="337" x2="-269.9" y2="457"/>
		<line class="st7" x1="-272.8" y1="337" x2="-272.8" y2="457"/>
		<line class="st7" x1="-275.7" y1="337" x2="-275.7" y2="457"/>
		<line class="st7" x1="-278.6" y1="337" x2="-278.6" y2="457"/>
		<line class="st7" x1="-281.6" y1="337" x2="-281.6" y2="457"/>
		<line class="st7" x1="-284.5" y1="337" x2="-284.5" y2="457"/>
		<line class="st7" x1="-287.4" y1="337" x2="-287.4" y2="457"/>
		<line class="st7" x1="-290.3" y1="337" x2="-290.3" y2="457"/>
		<line class="st7" x1="-293.3" y1="337" x2="-293.3" y2="457"/>
		<line class="st7" x1="-296.2" y1="337" x2="-296.2" y2="457"/>
		<line class="st7" x1="-299.1" y1="337" x2="-299.1" y2="457"/>
		<line class="st7" x1="-302" y1="337" x2="-302" y2="457"/>
		<line class="st7" x1="-305" y1="337" x2="-305" y2="457"/>
		<line class="st7" x1="-307.9" y1="337" x2="-307.9" y2="457"/>
		<line class="st7" x1="-310.8" y1="337" x2="-310.8" y2="457"/>
		<line class="st7" x1="-313.8" y1="337" x2="-313.8" y2="457"/>
		<line class="st7" x1="-316.7" y1="337" x2="-316.7" y2="457"/>
		<line class="st7" x1="-319.6" y1="337" x2="-319.6" y2="457"/>
		<line class="st7" x1="-322.5" y1="337" x2="-322.5" y2="457"/>
		<line class="st7" x1="-325.5" y1="337" x2="-325.5" y2="457"/>
		<line class="st7" x1="-328.4" y1="337" x2="-328.4" y2="457"/>
		<line class="st7" x1="-331.3" y1="337" x2="-331.3" y2="457"/>
		<line class="st7" x1="-334.2" y1="337" x2="-334.2" y2="457"/>
		<line class="st7" x1="-337.2" y1="337" x2="-337.2" y2="457"/>
		<line class="st7" x1="-340.1" y1="337" x2="-340.1" y2="457"/>
		<line class="st7" x1="-343" y1="337" x2="-343" y2="457"/>
		<line class="st7" x1="-346" y1="337" x2="-346" y2="457"/>
		<line class="st7" x1="-348.9" y1="337" x2="-348.9" y2="457"/>
		<line class="st7" x1="-351.8" y1="337" x2="-351.8" y2="457"/>
		<line class="st7" x1="-354.7" y1="337" x2="-354.7" y2="457"/>
		<line class="st7" x1="-357.7" y1="337" x2="-357.7" y2="457"/>
		<line class="st7" x1="-360.6" y1="337" x2="-360.6" y2="457"/>
		<line class="st7" x1="-363.5" y1="337" x2="-363.5" y2="457"/>
		<line class="st7" x1="-366.4" y1="337" x2="-366.4" y2="457"/>
		<line class="st7" x1="-369.4" y1="337" x2="-369.4" y2="457"/>
		<line class="st7" x1="-372.3" y1="337" x2="-372.3" y2="457"/>
		<line class="st7" x1="-375.2" y1="337" x2="-375.2" y2="457"/>
		<line class="st7" x1="-378.1" y1="337" x2="-378.1" y2="457"/>
		<line class="st7" x1="-381.1" y1="337" x2="-381.1" y2="457"/>
	</g>
	<circle class="st8" cx="-324" cy="397" r="60"/>
	<circle class="st8" cx="-324" cy="397" r="45.4"/>
	<g class="st9">
		<g class="st10">
			<rect x="-245" y="337" class="st7" width="120" height="120"/>
			<line class="st7" x1="-245" y1="454.1" x2="-125" y2="454.1"/>
			<line class="st7" x1="-245" y1="451.1" x2="-125" y2="451.1"/>
			<line class="st7" x1="-245" y1="448.2" x2="-125" y2="448.2"/>
			<line class="st7" x1="-245" y1="445.3" x2="-125" y2="445.3"/>
			<line class="st7" x1="-245" y1="442.4" x2="-125" y2="442.4"/>
			<line class="st7" x1="-245" y1="439.4" x2="-125" y2="439.4"/>
			<line class="st7" x1="-245" y1="436.5" x2="-125" y2="436.5"/>
			<line class="st7" x1="-245" y1="433.6" x2="-125" y2="433.6"/>
			<line class="st7" x1="-245" y1="430.7" x2="-125" y2="430.7"/>
			<line class="st7" x1="-245" y1="427.7" x2="-125" y2="427.7"/>
			<line class="st7" x1="-245" y1="424.8" x2="-125" y2="424.8"/>
			<line class="st7" x1="-245" y1="421.9" x2="-125" y2="421.9"/>
			<line class="st7" x1="-245" y1="419" x2="-125" y2="419"/>
			<line class="st7" x1="-245" y1="416" x2="-125" y2="416"/>
			<line class="st7" x1="-245" y1="413.1" x2="-125" y2="413.1"/>
			<line class="st7" x1="-245" y1="410.2" x2="-125" y2="410.2"/>
			<line class="st7" x1="-245" y1="407.2" x2="-125" y2="407.2"/>
			<line class="st7" x1="-245" y1="404.3" x2="-125" y2="404.3"/>
			<line class="st7" x1="-245" y1="401.4" x2="-125" y2="401.4"/>
			<line class="st7" x1="-245" y1="398.5" x2="-125" y2="398.5"/>
			<line class="st7" x1="-245" y1="395.5" x2="-125" y2="395.5"/>
			<line class="st7" x1="-245" y1="392.6" x2="-125" y2="392.6"/>
			<line class="st7" x1="-245" y1="389.7" x2="-125" y2="389.7"/>
			<line class="st7" x1="-245" y1="386.8" x2="-125" y2="386.8"/>
			<line class="st7" x1="-245" y1="383.8" x2="-125" y2="383.8"/>
			<line class="st7" x1="-245" y1="380.9" x2="-125" y2="380.9"/>
			<line class="st7" x1="-245" y1="378" x2="-125" y2="378"/>
			<line class="st7" x1="-245" y1="375" x2="-125" y2="375"/>
			<line class="st7" x1="-245" y1="372.1" x2="-125" y2="372.1"/>
			<line class="st7" x1="-245" y1="369.2" x2="-125" y2="369.2"/>
			<line class="st7" x1="-245" y1="366.3" x2="-125" y2="366.3"/>
			<line class="st7" x1="-245" y1="363.3" x2="-125" y2="363.3"/>
			<line class="st7" x1="-245" y1="360.4" x2="-125" y2="360.4"/>
			<line class="st7" x1="-245" y1="357.5" x2="-125" y2="357.5"/>
			<line class="st7" x1="-245" y1="354.6" x2="-125" y2="354.6"/>
			<line class="st7" x1="-245" y1="351.6" x2="-125" y2="351.6"/>
			<line class="st7" x1="-245" y1="348.7" x2="-125" y2="348.7"/>
			<line class="st7" x1="-245" y1="345.8" x2="-125" y2="345.8"/>
			<line class="st7" x1="-245" y1="342.9" x2="-125" y2="342.9"/>
			<line class="st7" x1="-245" y1="339.9" x2="-125" y2="339.9"/>
			<line class="st7" x1="-127.9" y1="337" x2="-127.9" y2="457"/>
			<line class="st7" x1="-130.9" y1="337" x2="-130.9" y2="457"/>
			<line class="st7" x1="-133.8" y1="337" x2="-133.8" y2="457"/>
			<line class="st7" x1="-136.7" y1="337" x2="-136.7" y2="457"/>
			<line class="st7" x1="-139.6" y1="337" x2="-139.6" y2="457"/>
			<line class="st7" x1="-142.6" y1="337" x2="-142.6" y2="457"/>
			<line class="st7" x1="-145.5" y1="337" x2="-145.5" y2="457"/>
			<line class="st7" x1="-148.4" y1="337" x2="-148.4" y2="457"/>
			<line class="st7" x1="-151.3" y1="337" x2="-151.3" y2="457"/>
			<line class="st7" x1="-154.3" y1="337" x2="-154.3" y2="457"/>
			<line class="st7" x1="-157.2" y1="337" x2="-157.2" y2="457"/>
			<line class="st7" x1="-160.1" y1="337" x2="-160.1" y2="457"/>
			<line class="st7" x1="-163" y1="337" x2="-163" y2="457"/>
			<line class="st7" x1="-166" y1="337" x2="-166" y2="457"/>
			<line class="st7" x1="-168.9" y1="337" x2="-168.9" y2="457"/>
			<line class="st7" x1="-171.8" y1="337" x2="-171.8" y2="457"/>
			<line class="st7" x1="-174.8" y1="337" x2="-174.8" y2="457"/>
			<line class="st7" x1="-177.7" y1="337" x2="-177.7" y2="457"/>
			<line class="st7" x1="-180.6" y1="337" x2="-180.6" y2="457"/>
			<line class="st7" x1="-183.5" y1="337" x2="-183.5" y2="457"/>
			<line class="st7" x1="-186.5" y1="337" x2="-186.5" y2="457"/>
			<line class="st7" x1="-189.4" y1="337" x2="-189.4" y2="457"/>
			<line class="st7" x1="-192.3" y1="337" x2="-192.3" y2="457"/>
			<line class="st7" x1="-195.2" y1="337" x2="-195.2" y2="457"/>
			<line class="st7" x1="-198.2" y1="337" x2="-198.2" y2="457"/>
			<line class="st7" x1="-201.1" y1="337" x2="-201.1" y2="457"/>
			<line class="st7" x1="-204" y1="337" x2="-204" y2="457"/>
			<line class="st7" x1="-207" y1="337" x2="-207" y2="457"/>
			<line class="st7" x1="-209.9" y1="337" x2="-209.9" y2="457"/>
			<line class="st7" x1="-212.8" y1="337" x2="-212.8" y2="457"/>
			<line class="st7" x1="-215.7" y1="337" x2="-215.7" y2="457"/>
			<line class="st7" x1="-218.7" y1="337" x2="-218.7" y2="457"/>
			<line class="st7" x1="-221.6" y1="337" x2="-221.6" y2="457"/>
			<line class="st7" x1="-224.5" y1="337" x2="-224.5" y2="457"/>
			<line class="st7" x1="-227.4" y1="337" x2="-227.4" y2="457"/>
			<line class="st7" x1="-230.4" y1="337" x2="-230.4" y2="457"/>
			<line class="st7" x1="-233.3" y1="337" x2="-233.3" y2="457"/>
			<line class="st7" x1="-236.2" y1="337" x2="-236.2" y2="457"/>
			<line class="st7" x1="-239.1" y1="337" x2="-239.1" y2="457"/>
			<line class="st7" x1="-242.1" y1="337" x2="-242.1" y2="457"/>
		</g>
		<circle class="st7" cx="-185" cy="397" r="60"/>
		<circle class="st7" cx="-185" cy="397" r="45.4"/>
	</g>
</g>
</svg>
